# xmcd CD database file
#
# Track frame offsets:
#	150
#	27555
#	49537
#	64967
#	83117
#	103592
#	114100
#	133472
#	147152
#	162367
#
# Disc length: 2455 seconds
#
# Revision: 0
# Processed by: cddbd v1.5PL3 Copyright (c) Steve Scherf et al.
# Submitted via: CDex 1.40Release
#
DISCID=8909950a
DTITLE=S.E.N.S. - The Key
DYEAR=2003
DGENRE=Instrumental
TTITLE0=Tune the Key
TTITLE1=Heart
TTITLE2=Memories
TTITLE3=Reason
TTITLE4=Dreambound
TTITLE5=So
TTITLE6=Refrain
TTITLE7=Little Bird
TTITLE8=Teardrops
TTITLE9=The Beginning
EXTD=YEAR: 2003 ID3G: 33
EXTT0=
EXTT1=
EXTT2=
EXTT3=
EXTT4=
EXTT5=
EXTT6=
EXTT7=
EXTT8=
EXTT9=
PLAYORDER=
